<svg width="148" height="105" viewBox="0 0 148 105" fill="none" xmlns="http://www.w3.org/2000/svg">
<g clip-path="url(#clip0_0_89)">
<path d="M11.3851 2.78949H135.439V97.6316H11.3851V2.78949Z" stroke="black" stroke-width="6"/>
<path d="M25.2085 34.636C22.8672 34.636 20.754 34.1711 18.869 33.2412C16.9838 32.3114 15.3571 31.0562 13.9889 29.4755C12.6206 27.8638 11.5564 26.0661 10.7963 24.0825C10.0666 22.0678 9.70169 20.0068 9.70169 17.8991C9.70169 15.6985 10.097 13.6064 10.8875 11.6228C11.678 9.60817 12.7726 7.82604 14.1713 6.27633C15.5699 4.69563 17.2118 3.45586 19.097 2.55703C21.0125 1.6272 23.08 1.16229 25.2997 1.16229C27.6105 1.16229 29.7085 1.6427 31.5936 2.60352C33.5092 3.56434 35.1358 4.85059 36.4737 6.46229C37.8419 8.07399 38.8909 9.87168 39.6206 11.8553C40.3808 13.8389 40.7609 15.869 40.7609 17.9456C40.7609 20.1462 40.3655 22.2538 39.575 24.2684C38.8148 26.252 37.7355 28.0342 36.3369 29.6149C34.9382 31.1647 33.2811 32.3889 31.3656 33.2877C29.4804 34.1866 27.4281 34.636 25.2085 34.636ZM14.9011 17.8991C14.9011 19.4489 15.1442 20.952 15.6308 22.4088C16.1172 23.8655 16.8014 25.1673 17.6831 26.314C18.5953 27.4298 19.6899 28.3132 20.9669 28.964C22.244 29.6149 23.673 29.9404 25.2541 29.9404C26.896 29.9404 28.3554 29.5994 29.6325 28.9176C30.9095 28.2357 31.9736 27.3213 32.825 26.1746C33.7067 24.9968 34.3757 23.695 34.8318 22.2693C35.2879 20.8126 35.5159 19.3559 35.5159 17.8991C35.5159 16.3494 35.2726 14.8617 34.7862 13.436C34.3301 11.9792 33.646 10.693 32.7338 9.5772C31.8217 8.43041 30.7271 7.53159 29.45 6.88071C28.2034 6.22984 26.8048 5.9044 25.2541 5.9044C23.6122 5.9044 22.1527 6.24534 20.8757 6.9272C19.5987 7.60907 18.5192 8.52341 17.6375 9.67019C16.7558 10.8169 16.0716 12.1033 15.5852 13.529C15.1291 14.9547 14.9011 16.4114 14.9011 17.8991ZM87.2333 1.39475V34.4035H82.0796V19.8518H65.7519V34.4035H60.6438V1.39475H65.7519V15.2026H82.0796V1.39475H87.2333ZM122.587 34.636C120.246 34.636 118.133 34.1711 116.247 33.2412C114.363 32.3114 112.735 31.0562 111.367 29.4755C109.999 27.8638 108.935 26.0661 108.175 24.0825C107.445 22.0678 107.08 20.0068 107.08 17.8991C107.08 15.6985 107.476 13.6064 108.266 11.6228C109.057 9.60817 110.151 7.82604 111.55 6.27633C112.949 4.69563 114.591 3.45586 116.475 2.55703C118.391 1.6272 120.459 1.16229 122.678 1.16229C124.989 1.16229 127.087 1.6427 128.972 2.60352C130.887 3.56434 132.515 4.85059 133.852 6.46229C135.22 8.07399 136.269 9.87168 136.999 11.8553C137.76 13.8389 138.139 15.869 138.139 17.9456C138.139 20.1462 137.744 22.2538 136.953 24.2684C136.194 26.252 135.114 28.0342 133.715 29.6149C132.317 31.1647 130.659 32.3889 128.744 33.2877C126.859 34.1866 124.807 34.636 122.587 34.636ZM112.279 17.8991C112.279 19.4489 112.523 20.952 113.009 22.4088C113.496 23.8655 114.18 25.1673 115.061 26.314C115.974 27.4298 117.068 28.3132 118.345 28.964C119.622 29.6149 121.052 29.9404 122.632 29.9404C124.274 29.9404 125.734 29.5994 127.011 28.9176C128.288 28.2357 129.352 27.3213 130.203 26.1746C131.085 24.9968 131.754 23.695 132.21 22.2693C132.666 20.8126 132.894 19.3559 132.894 17.8991C132.894 16.3494 132.652 14.8617 132.165 13.436C131.708 11.9792 131.024 10.693 130.112 9.5772C129.2 8.43041 128.105 7.53159 126.828 6.88071C125.582 6.22984 124.183 5.9044 122.632 5.9044C120.991 5.9044 119.531 6.24534 118.254 6.9272C116.977 7.60907 115.898 8.52341 115.016 9.67019C114.135 10.8169 113.451 12.1033 112.964 13.529C112.507 14.9547 112.279 16.4114 112.279 17.8991ZM35.7535 38.5412H24.99V66.9474H19.8363V38.5412H9.02722V33.9386H35.7535V38.5412ZM67.324 62.3447V66.9474H45.1129V33.9386H66.9135V38.5412H50.221V47.9325H64.6787V52.2561H50.221V62.3447H67.324ZM77.656 66.9474V33.9386H100.415V38.4947H82.7641V47.7465H92.2506C95.8385 47.7465 98.5294 48.6143 100.324 50.35C102.117 52.0547 103.015 54.3173 103.015 57.1377C103.015 59.0283 102.619 60.7176 101.829 62.2053C101.068 63.662 99.9132 64.8243 98.3625 65.6921C96.8419 66.529 94.9111 66.9474 92.5698 66.9474H77.656ZM82.7641 62.3912H91.8857C93.2844 62.3912 94.4094 62.1278 95.2607 61.6009C96.1425 61.074 96.7662 60.4076 97.1311 59.6018C97.5261 58.7649 97.724 57.8971 97.724 56.9983C97.724 56.0994 97.5562 55.2626 97.2223 54.4877C96.8876 53.7129 96.2792 53.093 95.3975 52.6281C94.5462 52.1322 93.3452 51.8842 91.7945 51.8842H82.7641V62.3912ZM135.036 62.3447V66.9474H112.825V33.9386H134.626V38.5412H117.933V47.9325H132.391V52.2561H117.933V62.3447H135.036ZM35.6399 66.4825V99.4912H30.4862V84.9395H14.1585V99.4912H9.05038V66.4825H14.1585V80.2904H30.4862V66.4825H35.6399ZM53.2065 66.4825H58.0409L70.6288 99.4912H65.247L61.8264 90.5184H49.3298L45.9548 99.4912H40.5274L53.2065 66.4825ZM60.823 86.6597L55.6237 72.2009L50.242 86.6597H60.823ZM70.4375 105.814V94.8886H71.9882C72.8395 94.8886 73.5692 94.5474 74.1774 93.8658C74.8159 93.1842 75.3479 92.0991 75.7737 90.6114C76.2297 89.1237 76.5794 87.1711 76.8226 84.7535C77.0963 82.305 77.2939 79.314 77.4155 75.7807L77.6436 66.4825H98.4866V94.8886H102.591V105.814H98.0761V99.4912H74.9527V105.814H70.4375ZM78.4645 94.8886H93.3328V71.0851H82.3868L82.25 76.4781C82.1588 80.0424 81.9763 83.0643 81.7027 85.5439C81.4291 87.9924 81.0337 89.9761 80.5169 91.4947C80 93.0132 79.3158 94.1447 78.4645 94.8886ZM122.406 99.7237C120.065 99.7237 117.952 99.2588 116.067 98.329C114.181 97.3991 112.555 96.1439 111.187 94.5632C109.818 92.9515 108.754 91.1538 107.994 89.1702C107.264 87.1555 106.899 85.0945 106.899 82.9869C106.899 80.7862 107.294 78.6941 108.085 76.7105C108.876 74.6959 109.971 72.9138 111.369 71.364C112.767 69.7833 114.409 68.5436 116.295 67.6447C118.21 66.7149 120.278 66.25 122.497 66.25C124.808 66.25 126.906 66.7305 128.791 67.6912C130.707 68.652 132.333 69.9383 133.671 71.55C135.04 73.1617 136.089 74.9594 136.818 76.943C137.578 78.9266 137.959 80.9568 137.959 83.0333C137.959 85.234 137.564 87.3415 136.773 89.3561C136.013 91.3397 134.933 93.1219 133.535 94.7026C132.136 96.2527 130.479 97.4763 128.563 98.3755C126.678 99.2746 124.626 99.7237 122.406 99.7237ZM112.099 82.9869C112.099 84.5366 112.342 86.0397 112.829 87.4965C113.315 88.9533 113.999 90.255 114.881 91.4018C115.793 92.5176 116.888 93.4009 118.165 94.0518C119.442 94.7026 120.871 95.0281 122.452 95.0281C124.094 95.0281 125.553 94.6868 126.83 94.0053C128.107 93.3237 129.172 92.409 130.023 91.2623C130.905 90.0845 131.573 88.7827 132.03 87.357C132.486 85.9003 132.714 84.4436 132.714 82.9869C132.714 81.4371 132.47 79.9494 131.984 78.5237C131.528 77.0669 130.844 75.7807 129.932 74.6649C129.019 73.5182 127.925 72.6193 126.648 71.9684C125.401 71.3176 124.002 70.9921 122.452 70.9921C120.81 70.9921 119.35 71.3331 118.073 72.0149C116.796 72.6968 115.717 73.6112 114.835 74.7579C113.953 75.9047 113.269 77.191 112.783 78.6167C112.327 80.0424 112.099 81.4991 112.099 82.9869Z" fill="black"/>
</g>
<defs>
<clipPath id="clip0_0_89">
<rect width="148" height="105" fill="white"/>
</clipPath>
</defs>
</svg>
