<svg width="48" height="48" viewBox="0 0 48 48" fill="none" xmlns="http://www.w3.org/2000/svg">
<circle cx="24" cy="24" r="23.5" stroke="black"/>
<path d="M33 18C32.6711 16.8737 31.7586 16.824 31 16C30.2584 15.194 30.0144 14.4514 29 14C27.8449 13.4871 26.2795 12.9398 25 13C24.5332 13.0216 23.447 12.9344 23 13C21.7409 13.1825 21.0216 13.3999 20 14C18.6965 14.7663 17.7036 15.7098 17 17C16.6347 17.6714 16.1531 19.227 16 20C15.819 20.9116 15.6369 22.1083 16 23C16.4537 24.1115 17.0897 25.3125 18 26C18.0055 26.0041 18.625 26.0062 19 26C19.6829 25.9867 19.9349 25.3181 20 25C19.9856 25.0557 20.0123 24.94 20 25C19.9835 25.0548 20.0127 24.9507 20 25C20.0964 24.684 20.2182 24.3835 20 24C19.918 23.8562 20.0854 23.0983 20 23C19.9535 22.9464 20.0377 23.057 20 23C19.6762 22.5126 19 21.7153 19 21C19 20.0614 19.5687 19.81 20 19C20.7826 17.5307 22.3248 16.2857 24 16C24.9535 15.8382 25.1662 15.7294 26 16C26.7615 16.2474 27.5349 16.4188 28 17C28.4922 17.6151 28.9379 19.076 29 20C29.0406 20.5898 29.0436 20.6054 29 21C28.8317 22.5185 28.6917 24.107 28 25C27.4334 25.7327 26.6909 25.9764 26 26C25.5552 26.0175 25.3006 26.2181 25 26C24.7163 25.7949 24.0795 25.3366 24 25C23.91 24.6157 24.8846 24.4219 25 24C25.1011 23.6287 24.8964 23.3338 25 23C25.1628 22.474 24.8609 21.6307 25 21C25.1573 20.2878 25.1138 19.4702 25 19C24.8596 18.4164 24.4702 18.2789 24 18C23.5024 17.7058 23.5915 17.7935 23 18C22.118 18.3051 21.2914 18.89 21 20C20.8525 20.5638 20.9362 21.3978 21 22C21.0491 22.4722 20.8072 22.4817 21 23C20.9937 23.0225 21.0068 22.9771 21 23C20.9861 23.0463 21.0093 22.9616 21 23C20.7924 23.8773 20.2013 25.1361 20 26C19.8089 26.8201 20.1954 27.173 20 28V29C19.8 29.8426 19.0478 29.9599 19 31V32C18.9577 32.808 18.893 33.2268 19 34C19.0211 34.1508 19.6715 34.8817 20 35C19.9083 35 20.0981 35.0747 20 35C20.2749 35 20.792 34.2399 21 34C21.6795 33.2171 21.4909 32.2498 22 31C22.2279 30.441 22.8542 30.5818 23 30V29C23.1066 28.5857 22.8968 28.4154 23 28C23.1919 28.1701 23.7434 28.8575 24 29C24.5434 29.3048 25.3349 28.9548 26 29C26.6237 29.0428 27.2757 29.2106 28 29C28.5501 28.841 28.5108 28.3175 29 28C30.7551 26.8611 32.5827 25.4785 33 23C33.1251 22.2594 33 21.6547 33 21C33 20.2446 33.1755 18.5973 33 18ZM32 22C31.6237 24.2324 30.5471 25.9961 29 27C28.5819 27.2714 28.4697 27.8641 28 28C27.3738 28.1823 26.5214 28.0362 26 28C25.4541 27.9627 24.4393 28.2466 24 28C23.5607 27.7564 24.2 27.3494 24 27L23 26V28C22.8973 28.413 22.1061 28.5878 22 29C21.855 29.5771 22.2046 30.4991 22 31C21.5442 32.1198 20.589 33.3016 20 34C19.9539 33.4055 19.9662 32.6481 20 32V31C20.0436 30.0427 20.8097 29.8025 21 29C21.1954 28.1724 20.8085 26.8207 21 26C21.2013 25.137 21.7928 24.8754 22 24C21.9911 24.0302 22.0059 23.9753 22 24C22.0521 23.823 22.0732 23.1858 22 23C21.8144 22.5177 22.0435 22.4197 22 22C21.948 21.5042 21.8791 20.4597 22 20C22.2157 19.1784 22.3958 19.2091 23 19C22.8495 19 23.1497 18.9479 23 19C23.2457 19 23.8537 18.9135 24 19C24.263 19.156 24.9163 18.6508 25 19C25.0804 19.3318 24.1251 20.4312 24 21C23.8685 21.5945 24.1649 21.4678 24 22C23.8935 22.343 24.104 23.6182 24 24C23.8668 24.4867 23.8579 24.3954 24 25C24.129 25.5474 23.5434 26.6694 24 27C24.4537 27.3287 25.3759 27.0199 26 27C26.9488 26.9676 28.2761 26.9356 29 26C29.7928 24.977 29.8131 22.6835 30 21C30.0469 20.5709 30.0453 20.6603 30 20C29.9248 18.8924 29.6067 17.7582 29 17C28.4288 16.2861 27.9226 15.2995 27 15C26.0428 14.6887 24.0816 14.8157 23 15C21.0517 15.3325 19.9141 16.2839 19 18C18.4986 18.9413 18 19.9121 18 21C18 21.8931 18.5784 23.3654 19 24C18.9281 23.9175 19.0579 24.0876 19 24C18.9628 23.9346 19.0647 24.0745 19 24C19.0263 24.0715 19.0363 24.8811 19 25C18.9797 25.0671 19.0157 24.9398 19 25C18.9818 25.0701 19.0156 24.9243 19 25C18.9831 25.0826 19.0275 24.93 19 25C18.8973 24.9593 19.1015 25.0763 19 25C18.222 24.4128 17.3907 23.9578 17 23C16.707 22.2802 16.8546 20.7318 17 20C17.1624 19.1799 17.7209 18.5127 18 18C18.6266 16.851 18.8339 15.6853 20 15C20.9234 14.4575 21.8517 14.1664 23 14C23.4085 13.94 24.5552 14.0205 25 14C26.1476 13.9454 26.965 14.54 28 15C28.904 15.4023 29.3404 15.2827 30 16C30.6651 16.7222 31.7099 18.0066 32 19C32.1518 19.5165 32 20.3294 32 21C32 21.6024 32.1163 21.3108 32 22Z" fill="black"/>
</svg>
