<svg width="48" height="48" viewBox="0 0 48 48" fill="none" xmlns="http://www.w3.org/2000/svg">
<circle cx="24" cy="24" r="23.5" stroke="black"/>
<path d="M37 33H33C32.5332 33 31.2801 32.375 31 32C30.7666 31.7188 28.307 28.7969 27 28C26.4865 27.7188 27 28 27 28C27 27.9531 27 28 27 28V31C27 32.3125 25.2603 33 24 33H23C22.7666 33 18.1544 33.2344 14 27C10.7324 22.125 9.37342 18.8281 8.99998 17C8.90662 16.5781 8.76658 16.3281 8.99998 16C9.28006 15.6719 9.57987 15 9.99998 15H14C14.6068 15 14.8133 15.3906 15 16C15.3734 17.0781 15.8797 20.2188 17 22C18.6338 24.7188 19.8133 25 20 25C20.14 24.7656 20 23.6094 20 23C20 22.7188 20 22.2812 20 22C20 21.8125 20 21.2344 20 21C20 19.8281 20.4668 18.75 20 18L19 17C18.8133 16.7188 18.8133 16.3281 19 16C19.14 15.6719 18.6265 15 19 15H25C25.7935 15 26 15.25 26 16V23C26 23 26 23.0469 26 23C26 23 26.4865 23.4688 27 23C28.0736 21.9219 29.6463 19.7656 31 17V16C31.2334 15.4844 31.4398 15 32 15H36C36.4668 15 36.7199 15.625 37 16C37.2801 16.375 37.1867 16.5781 37 17V18C36.9533 18.0938 35.307 20.1719 34 22C32.973 23.4062 32.9066 24.7656 33 25C33.0933 25.1406 33.3932 25.4375 34 26C35.1203 27.1719 36.4865 29.0156 37 30C37.2334 30.4219 37.8599 30.6719 38 31C38.2334 31.4219 38.2801 31.5312 38 32C37.7199 32.5156 37.5135 33 37 33ZM27 27C27.3267 27 27.5799 26.7656 28 27C29.5404 27.8906 31.9066 30.8594 32 31V32C32.0933 32.1406 32.8133 32 33 32H37C36.9533 32.0938 37.2334 32 37 32C37.0467 31.9531 37.14 31.2344 37 31C36.8133 30.6719 36.2334 30.4219 36 30C35.5332 29.1562 34.0269 28.125 33 27C31.973 25.875 32.0933 25.2344 32 25C31.7199 24.2969 31.6463 23.875 33 22C34.2136 20.3125 35.8599 18.2812 36 18V17C36.0467 16.8594 36.0933 16.0938 36 16C35.9066 15.8594 36.14 16 36 16H33C32.8133 16 32.0467 15.8125 32 16V17C30.973 19.0156 29.447 22.5469 28 24C27.3932 24.6094 26.4668 24.1406 26 24C25.4398 23.8125 25 23.0469 25 23C25 22.9531 25 23.0469 25 23V17C25 16.7188 25.2334 16 25 16H19L20 17C20.6068 17.9844 21.0467 19.6406 21 21C21 21.2344 21 21.8125 21 22C21 22.2344 21 22.7656 21 23C21.0467 24.3125 20.8402 25.8125 20 26C19.0664 26.1875 18.5871 24.5781 17 22C15.9264 20.1719 14.4668 17.4062 14 16C13.9533 15.8125 14.2334 16 14 16H9.99998C9.85994 16 10.0933 15.8594 9.99998 16C9.90662 16.0938 9.99998 16.8594 9.99998 17C10.3267 18.7344 11.8258 21.2188 15 26C18.8744 31.8125 22.9533 32 23 32H24C24.7935 32 26 31.75 26 31V28C26 27.9531 25.4865 27.3281 26 27C26.1867 26.9062 26.8133 27 27 27Z" fill="black"/>
</svg>
