<svg width="48" height="48" viewBox="0 0 48 48" fill="none" xmlns="http://www.w3.org/2000/svg">
<circle cx="24" cy="24" r="23.5" stroke="black"/>
<path d="M32 14H16C13.149 14 11 16.0058 11 19V29C11 31.9942 13.149 34 16 34H32C34.851 34 37 31.9942 37 29V19C37 16.0058 34.851 14 32 14ZM36 29C36 31.3814 34.2657 33 32 33H16C13.7343 33 12 31.3814 12 29V19C12 16.6186 13.7343 15 16 15H32C34.2657 15 36 16.6186 36 19V29Z" fill="black"/>
<path d="M29 24L22 19C21.8448 18.9012 21.157 18.9022 21 19C20.8431 19.0978 21 19.8034 21 20V28C21 28.1966 20.8433 28.9022 21 29C21.0778 29.0485 21.9135 29 22 29C21.9211 29.0501 22.0882 29 22 29L29 24C29.1544 23.9017 29 24.1948 29 24C29.1547 24.0983 29 23.8052 29 24ZM22 27V21L27 24L22 27Z" fill="black"/>
</svg>
